<mxfile host="www.draw.io" modified="2019-11-26T07:08:25.637Z" agent="Mozilla/5.0 (Windows NT 10.0; Win64; x64) AppleWebKit/537.36 (KHTML, like Gecko) Chrome/78.0.3904.108 Safari/537.36" etag="3nc2lHdcgET74HMm2YSP" version="12.3.1" type="github" pages="1">
  <diagram id="RxnfN1g1F3TeeVOg4sun" name="Page-1">
    <mxGraphModel dx="1422" dy="762" grid="1" gridSize="10" guides="1" tooltips="1" connect="1" arrows="1" fold="1" page="1" pageScale="1" pageWidth="827" pageHeight="1169" math="0" shadow="0">
      <root>
        <mxCell id="0"/>
        <mxCell id="1" parent="0"/>
        <mxCell id="wxd9c2k9T46__YOKC8Sx-1" value="main" style="rounded=1;whiteSpace=wrap;html=1;" vertex="1" parent="1">
          <mxGeometry x="50" y="335" width="80" height="50" as="geometry"/>
        </mxCell>
        <mxCell id="wxd9c2k9T46__YOKC8Sx-21" style="edgeStyle=orthogonalEdgeStyle;rounded=0;orthogonalLoop=1;jettySize=auto;html=1;exitX=0;exitY=0.5;exitDx=0;exitDy=0;entryX=1;entryY=0.5;entryDx=0;entryDy=0;" edge="1" parent="1" source="wxd9c2k9T46__YOKC8Sx-6" target="wxd9c2k9T46__YOKC8Sx-1">
          <mxGeometry relative="1" as="geometry"/>
        </mxCell>
        <mxCell id="wxd9c2k9T46__YOKC8Sx-6" value="push" style="rounded=1;whiteSpace=wrap;html=1;" vertex="1" parent="1">
          <mxGeometry x="210" y="340" width="120" height="40" as="geometry"/>
        </mxCell>
        <mxCell id="wxd9c2k9T46__YOKC8Sx-25" style="edgeStyle=orthogonalEdgeStyle;rounded=0;orthogonalLoop=1;jettySize=auto;html=1;exitX=0;exitY=0.5;exitDx=0;exitDy=0;" edge="1" parent="1" source="wxd9c2k9T46__YOKC8Sx-7">
          <mxGeometry relative="1" as="geometry">
            <mxPoint x="90" y="410" as="targetPoint"/>
          </mxGeometry>
        </mxCell>
        <mxCell id="wxd9c2k9T46__YOKC8Sx-7" value="pop" style="rounded=1;whiteSpace=wrap;html=1;" vertex="1" parent="1">
          <mxGeometry x="210" y="390" width="120" height="40" as="geometry"/>
        </mxCell>
        <mxCell id="wxd9c2k9T46__YOKC8Sx-20" style="edgeStyle=orthogonalEdgeStyle;rounded=0;orthogonalLoop=1;jettySize=auto;html=1;exitX=0;exitY=0.5;exitDx=0;exitDy=0;" edge="1" parent="1" source="wxd9c2k9T46__YOKC8Sx-8">
          <mxGeometry relative="1" as="geometry">
            <mxPoint x="90" y="310" as="targetPoint"/>
          </mxGeometry>
        </mxCell>
        <mxCell id="wxd9c2k9T46__YOKC8Sx-8" value="getelem" style="rounded=1;whiteSpace=wrap;html=1;" vertex="1" parent="1">
          <mxGeometry x="210" y="290" width="120" height="40" as="geometry"/>
        </mxCell>
        <mxCell id="wxd9c2k9T46__YOKC8Sx-18" style="edgeStyle=orthogonalEdgeStyle;rounded=0;orthogonalLoop=1;jettySize=auto;html=1;exitX=0;exitY=0.5;exitDx=0;exitDy=0;" edge="1" parent="1" source="wxd9c2k9T46__YOKC8Sx-9">
          <mxGeometry relative="1" as="geometry">
            <mxPoint x="90" y="210" as="targetPoint"/>
          </mxGeometry>
        </mxCell>
        <mxCell id="wxd9c2k9T46__YOKC8Sx-9" value="size" style="rounded=1;whiteSpace=wrap;html=1;" vertex="1" parent="1">
          <mxGeometry x="210" y="190" width="120" height="40" as="geometry"/>
        </mxCell>
        <mxCell id="wxd9c2k9T46__YOKC8Sx-19" style="edgeStyle=orthogonalEdgeStyle;rounded=0;orthogonalLoop=1;jettySize=auto;html=1;exitX=0;exitY=0.5;exitDx=0;exitDy=0;" edge="1" parent="1" source="wxd9c2k9T46__YOKC8Sx-10">
          <mxGeometry relative="1" as="geometry">
            <mxPoint x="90" y="260" as="targetPoint"/>
          </mxGeometry>
        </mxCell>
        <mxCell id="wxd9c2k9T46__YOKC8Sx-10" value="howMany" style="rounded=1;whiteSpace=wrap;html=1;" vertex="1" parent="1">
          <mxGeometry x="210" y="240" width="120" height="40" as="geometry"/>
        </mxCell>
        <mxCell id="wxd9c2k9T46__YOKC8Sx-17" style="edgeStyle=orthogonalEdgeStyle;rounded=0;orthogonalLoop=1;jettySize=auto;html=1;exitX=0;exitY=0.5;exitDx=0;exitDy=0;" edge="1" parent="1" source="wxd9c2k9T46__YOKC8Sx-11" target="wxd9c2k9T46__YOKC8Sx-1">
          <mxGeometry relative="1" as="geometry"/>
        </mxCell>
        <mxCell id="wxd9c2k9T46__YOKC8Sx-11" value="InitStack" style="rounded=1;whiteSpace=wrap;html=1;" vertex="1" parent="1">
          <mxGeometry x="210" y="140" width="120" height="40" as="geometry"/>
        </mxCell>
        <mxCell id="wxd9c2k9T46__YOKC8Sx-27" style="edgeStyle=orthogonalEdgeStyle;rounded=0;orthogonalLoop=1;jettySize=auto;html=1;exitX=0;exitY=0.5;exitDx=0;exitDy=0;" edge="1" parent="1" source="wxd9c2k9T46__YOKC8Sx-12">
          <mxGeometry relative="1" as="geometry">
            <mxPoint x="90" y="510" as="targetPoint"/>
          </mxGeometry>
        </mxCell>
        <mxCell id="wxd9c2k9T46__YOKC8Sx-12" value="print" style="rounded=1;whiteSpace=wrap;html=1;" vertex="1" parent="1">
          <mxGeometry x="210" y="490" width="120" height="40" as="geometry"/>
        </mxCell>
        <mxCell id="wxd9c2k9T46__YOKC8Sx-24" style="edgeStyle=orthogonalEdgeStyle;rounded=0;orthogonalLoop=1;jettySize=auto;html=1;exitX=0;exitY=0.5;exitDx=0;exitDy=0;entryX=0.5;entryY=1;entryDx=0;entryDy=0;" edge="1" parent="1" source="wxd9c2k9T46__YOKC8Sx-13" target="wxd9c2k9T46__YOKC8Sx-1">
          <mxGeometry relative="1" as="geometry"/>
        </mxCell>
        <mxCell id="wxd9c2k9T46__YOKC8Sx-13" value="destroyStack" style="rounded=1;whiteSpace=wrap;html=1;" vertex="1" parent="1">
          <mxGeometry x="210" y="540" width="120" height="40" as="geometry"/>
        </mxCell>
        <mxCell id="wxd9c2k9T46__YOKC8Sx-26" style="edgeStyle=orthogonalEdgeStyle;rounded=0;orthogonalLoop=1;jettySize=auto;html=1;exitX=0;exitY=0.5;exitDx=0;exitDy=0;" edge="1" parent="1" source="wxd9c2k9T46__YOKC8Sx-14">
          <mxGeometry relative="1" as="geometry">
            <mxPoint x="90" y="460" as="targetPoint"/>
          </mxGeometry>
        </mxCell>
        <mxCell id="wxd9c2k9T46__YOKC8Sx-14" value="assign" style="rounded=1;whiteSpace=wrap;html=1;" vertex="1" parent="1">
          <mxGeometry x="210" y="440" width="120" height="40" as="geometry"/>
        </mxCell>
      </root>
    </mxGraphModel>
  </diagram>
</mxfile>
